<svg xmlns="http://www.w3.org/2000/svg" viewBox="29.2 37.6 142.4 115.6" style="max-height: 500px" width="142.4" height="115.6">
  <path transform="translate(100 100)" d="M39.6,-60.6C53.9,-60.4,69.6,-54.8,70,-43.8C70.4,-32.8,55.5,-16.4,50.7,-2.8C45.9,10.9,51.2,21.8,48.2,28.2C45.2,34.7,33.8,36.7,24.4,37.2C14.9,37.6,7.5,36.5,-2.3,40.5C-12.2,44.6,-24.3,53.9,-29.7,51.1C-35.1,48.3,-33.7,33.5,-40.3,23C-46.8,12.4,-61.2,6.2,-66.9,-3.3C-72.6,-12.8,-69.4,-25.5,-62,-34.6C-54.6,-43.6,-43,-48.9,-31.9,-50.9C-20.9,-52.9,-10.4,-51.7,1.1,-53.6C12.7,-55.6,25.4,-60.8,39.6,-60.6Z" fill="#0369A1"/>
</svg>